<svg width="334" height="382" viewBox="0 0 334 382" fill="none" xmlns="http://www.w3.org/2000/svg">
<rect width="334" height="382" fill="#E5E5E5"/>
<rect width="334" height="381" fill="#060047"/>
<circle cx="166.5" cy="216.5" r="102.5" fill="white"/>
<circle cx="166.5" cy="216.5" r="78.5" fill="#BFC7CC"/>
<path fill-rule="evenodd" clip-rule="evenodd" d="M101.986 98.8115L241.582 111.025L241.548 111.414C242.636 111.252 243.754 111.215 244.89 111.314C253.294 112.049 259.463 120.005 258.669 129.083C257.875 138.161 250.418 144.924 242.014 144.188C240.878 144.089 239.783 143.858 238.74 143.51L238.706 143.899L99.1097 131.686L98.4481 131.628L98.4494 131.613C90.3851 130.53 84.5578 122.756 85.3311 113.917C86.1043 105.079 93.1931 98.4347 101.323 98.7689L101.324 98.7536L101.986 98.8115Z" fill="#FAFAFA"/>
<path fill-rule="evenodd" clip-rule="evenodd" d="M96.8419 99.5126L99.6475 97.1136L155.983 36.2794C162.281 29.4779 170.444 25.3535 179 24.0204V24H179.132C189.679 22.3927 200.81 25.0242 209.77 32.1081L282.229 89.3939C287.9 93.8776 284.73 103 277.5 103V102.641L277.484 102.642L277.442 102.997L243.766 99.094L244.303 100.479L250.147 112.738L233.993 110.754L137.697 102.369L96.8419 99.5126ZM108.287 89.2555L108.288 89.2561L108.488 89.0392L108.287 89.2555Z" fill="#C30F16"/>
<circle cx="287.5" cy="101.5" r="11.5" fill="#FAFAFA"/>
<rect x="108" y="307" width="117" height="74" fill="white"/>
<path fill-rule="evenodd" clip-rule="evenodd" d="M108.228 295L66.4134 347.568L38.6404 380.3L38.6077 380.3L38.6076 380.339L38.5955 380.353L38.6075 380.363L38.6051 381L99.1748 381.226L99.2464 381.283L99.2913 381.226L99.3554 381.227L99.3557 381.145L144.763 324.061L108.228 295Z" fill="white"/>
<path fill-rule="evenodd" clip-rule="evenodd" d="M226.13 295L267.945 347.568L295.718 380.3L295.75 380.3L295.75 380.339L295.763 380.353L295.751 380.363L295.753 381L235.183 381.226L235.112 381.283L235.067 381.226L235.003 381.227L235.002 381.145L189.596 324.061L226.13 295Z" fill="white"/>
<rect x="118" y="319" width="97" height="62" fill="#EAEAEA"/>
<circle cx="205" cy="329" r="6" fill="#009FD7"/>
<circle cx="190" cy="329" r="6" fill="#F5831F"/>
</svg>
